<svg xmlns="http://www.w3.org/2000/svg" viewBox="0 0 800 480">
<defs>
  <linearGradient id="sky" x1="0" y1="0" x2="0" y2="1"><stop stop-color="#2f3a78"/><stop offset="1" stop-color="#8e7cc3"/></linearGradient>
  <linearGradient id="floor" x1="0" y1="0" x2="1" y2="0"><stop stop-color="#ffd6e8"/><stop offset="1" stop-color="#fff1b8"/></linearGradient>
  <filter id="shadow"><feDropShadow dx="0" dy="6" stdDeviation="5" flood-color="#5f315c" flood-opacity=".16"/></filter>
</defs>
<rect width="800" height="480" fill="url(#sky)"/>
<g opacity=".72" fill="#fff"><ellipse cx="105" cy="74" rx="78" ry="25"/><ellipse cx="150" cy="60" rx="45" ry="22"/><ellipse cx="575" cy="92" rx="86" ry="28"/><ellipse cx="622" cy="78" rx="52" ry="24"/><ellipse cx="365" cy="48" rx="58" ry="18"/></g>
<path d="M0 300c110-42 205-48 326-10 126 39 258 42 474-8v198H0z" fill="#b8e6d5" opacity=".7"/>
<path d="M0 360c150-50 278-38 424-4 139 32 250 31 376-8v132H0z" fill="url(#floor)"/>

<rect x="0" y="360" width="800" height="120" fill="#d8c2f0"/><g fill="#ffe5a8"><path d="M96 72l7 16 17 2-13 11 4 17-15-9-15 9 4-17-13-11 17-2z"/><path d="M640 64l5 12 13 2-10 8 3 13-11-7-11 7 3-13-10-8 13-2z"/><circle cx="706" cy="124" r="24" opacity=".86"/></g>
<rect x="86" y="252" width="292" height="108" rx="28" fill="#ffb3d9" stroke="#f08bbd" stroke-width="7"/><rect x="120" y="202" width="226" height="86" rx="32" fill="#ffd6e8"/><ellipse cx="178" cy="250" rx="52" ry="34" fill="#fff6e9"/><ellipse cx="282" cy="250" rx="52" ry="34" fill="#a8d0ff"/><rect x="498" y="186" width="158" height="174" rx="30" fill="#d4b8a8" stroke="#b88654" stroke-width="7"/><rect x="524" y="212" width="106" height="38" rx="14" fill="#ffe5a8"/><rect x="524" y="270" width="106" height="38" rx="14" fill="#ffe5a8"/><circle cx="606" cy="232" r="6" fill="#8b7866"/><circle cx="606" cy="290" r="6" fill="#8b7866"/>
<rect x="675" y="210" width="44" height="128" rx="15" fill="#ffd166"/><path d="M650 212h94l-24-58h-46z" fill="#ffe5a8"/><circle cx="697" cy="206" r="50" fill="#ffd166" opacity=".14"/>
<g font-size="48"><text x="410" y="330">🧸</text><text x="42" y="416">🧺</text><text x="725" y="420">⭐</text></g>
<g opacity=".92" filter="url(#shadow)"><text x="36" y="52" font-family="Fredoka, Nunito, Arial" font-size="22" fill="#5f315c" font-weight="700">Dreamy Bunny Bedroom</text></g>
</svg>