<svg xmlns="http://www.w3.org/2000/svg" viewBox="0 0 800 480">
<defs>
  <linearGradient id="sky" x1="0" y1="0" x2="0" y2="1"><stop stop-color="#b3e5fc"/><stop offset="1" stop-color="#87ceeb"/></linearGradient>
  <linearGradient id="floor" x1="0" y1="0" x2="1" y2="0"><stop stop-color="#81c784"/><stop offset="1" stop-color="#fff1b8"/></linearGradient>
  <filter id="shadow"><feDropShadow dx="0" dy="6" stdDeviation="5" flood-color="#5f315c" flood-opacity=".16"/></filter>
</defs>
<rect width="800" height="480" fill="url(#sky)"/>
<g opacity=".72" fill="#fff"><ellipse cx="105" cy="74" rx="78" ry="25"/><ellipse cx="150" cy="60" rx="45" ry="22"/><ellipse cx="575" cy="92" rx="86" ry="28"/><ellipse cx="622" cy="78" rx="52" ry="24"/><ellipse cx="365" cy="48" rx="58" ry="18"/></g>
<path d="M0 300c110-42 205-48 326-10 126 39 258 42 474-8v198H0z" fill="#b8e6d5" opacity=".7"/>
<path d="M0 360c150-50 278-38 424-4 139 32 250 31 376-8v132H0z" fill="url(#floor)"/>

<circle cx="720" cy="62" r="48" fill="#ffee58"/><path d="M0 285c120-62 218-62 338 0s238 64 462-6v201H0z" fill="#a8d5ba"/><path d="M0 342c150-48 275-35 420 0s260 34 380-5v143H0z" fill="#61c46f"/>
<g stroke="#ffcc80" stroke-width="10"><path d="M0 288h800M0 322h800"/><g><path d="M20 270v72"/><path d="M74 270v72"/><path d="M128 270v72"/><path d="M182 270v72"/><path d="M236 270v72"/><path d="M290 270v72"/><path d="M344 270v72"/><path d="M398 270v72"/><path d="M452 270v72"/><path d="M506 270v72"/><path d="M560 270v72"/><path d="M614 270v72"/><path d="M668 270v72"/><path d="M722 270v72"/><path d="M776 270v72"/></g></g>
<rect x="82" y="178" width="36" height="146" rx="12" fill="#8d6e63"/><circle cx="100" cy="132" r="70" fill="#4caf50"/><circle cx="56" cy="164" r="46" fill="#66bb6a"/><circle cx="145" cy="166" r="46" fill="#66bb6a"/><g fill="#ff5252"><circle cx="82" cy="126" r="8"/><circle cx="126" cy="108" r="8"/><circle cx="130" cy="168" r="7"/></g>
<rect x="620" y="198" width="116" height="94" rx="18" fill="#ffd6a8" stroke="#b88654" stroke-width="7"/><path d="M608 198l70-58 70 58z" fill="#ff8fa0" stroke="#b88654" stroke-width="7"/><circle cx="680" cy="242" r="25" fill="#fff6e9"/>
<path d="M305 416c62-50 130-50 194 0" stroke="#d4b8a8" stroke-width="34" stroke-linecap="round" fill="none" opacity=".8"/>
<g transform="translate(238 340)"><ellipse rx="52" ry="32" fill="#8fd3ff"/><ellipse rx="42" ry="23" fill="#a8e4ff" opacity=".8"/></g>
<g fill="#ff6b9d"><circle cx="520" cy="388" r="8"/><circle cx="532" cy="398" r="8"/><circle cx="508" cy="398" r="8"/></g><circle cx="520" cy="397" r="5" fill="#ffee58"/>
<g font-size="42"><text x="338" y="240">🦋</text><text x="460" y="188">🦋</text><text x="34" y="420">🍄</text><text x="724" y="412">🍄</text></g><g id="big-flowers">
<g transform="translate(665 365)"><circle r="18" fill="#ff8fb3"/><circle cx="22" r="16" fill="#ffb3d9"/><circle cy="22" r="16" fill="#ffd166"/><circle cx="22" cy="22" r="16" fill="#a8d0ff"/><circle cx="11" cy="11" r="8" fill="#fff6d8"/></g>
<g transform="translate(82 382)"><rect x="-4" y="0" width="8" height="64" rx="4" fill="#4caf50"/><circle cy="-10" r="16" fill="#ff8fb3"/><circle cx="18" cy="-2" r="14" fill="#ffd166"/><circle cx="-16" cy="-2" r="14" fill="#a8d0ff"/><circle r="7" fill="#fff"/></g>
<g fill="#ff8b4d"><path d="M525 405l36-10-10 31z"/><path d="M565 378l38-7-12 32z"/><path d="M610 414l35-11-8 31z"/></g><g stroke="#4caf50" stroke-width="5"><path d="M552 395l15-18"/><path d="M591 372l16-18"/><path d="M638 404l17-17"/></g>
</g>
<g opacity=".92" filter="url(#shadow)"><text x="36" y="52" font-family="Fredoka, Nunito, Arial" font-size="22" fill="#5f315c" font-weight="700">Big Play Garden</text></g>
</svg>