<svg xmlns="http://www.w3.org/2000/svg" viewBox="0 0 800 480">
<defs>
  <linearGradient id="wall" x1="0" y1="0" x2="0" y2="1"><stop stop-color="#FFF6E9"/><stop offset="1" stop-color="#FFE0B2"/></linearGradient>
  <linearGradient id="floor" x1="0" y1="0" x2="1" y2="0"><stop stop-color="#F5DEB3"/><stop offset="1" stop-color="#FAEBD7"/></linearGradient>
  <filter id="soft"><feGaussianBlur stdDeviation="5"/></filter>
</defs>

<rect width="800" height="400" fill="url(#wall)"/><g opacity=".55"><rect x="0" y="105" width="28" height="28" fill="#FFE0B2" stroke="#FFCC80"/><rect x="0" y="135" width="28" height="28" fill="#FFF8E1" stroke="#FFCC80"/><rect x="0" y="165" width="28" height="28" fill="#FFE0B2" stroke="#FFCC80"/><rect x="30" y="105" width="28" height="28" fill="#FFF8E1" stroke="#FFCC80"/><rect x="30" y="135" width="28" height="28" fill="#FFE0B2" stroke="#FFCC80"/><rect x="30" y="165" width="28" height="28" fill="#FFF8E1" stroke="#FFCC80"/><rect x="60" y="105" width="28" height="28" fill="#FFE0B2" stroke="#FFCC80"/><rect x="60" y="135" width="28" height="28" fill="#FFF8E1" stroke="#FFCC80"/><rect x="60" y="165" width="28" height="28" fill="#FFE0B2" stroke="#FFCC80"/><rect x="90" y="105" width="28" height="28" fill="#FFF8E1" stroke="#FFCC80"/><rect x="90" y="135" width="28" height="28" fill="#FFE0B2" stroke="#FFCC80"/><rect x="90" y="165" width="28" height="28" fill="#FFF8E1" stroke="#FFCC80"/><rect x="120" y="105" width="28" height="28" fill="#FFE0B2" stroke="#FFCC80"/><rect x="120" y="135" width="28" height="28" fill="#FFF8E1" stroke="#FFCC80"/><rect x="120" y="165" width="28" height="28" fill="#FFE0B2" stroke="#FFCC80"/><rect x="150" y="105" width="28" height="28" fill="#FFF8E1" stroke="#FFCC80"/><rect x="150" y="135" width="28" height="28" fill="#FFE0B2" stroke="#FFCC80"/><rect x="150" y="165" width="28" height="28" fill="#FFF8E1" stroke="#FFCC80"/><rect x="180" y="105" width="28" height="28" fill="#FFE0B2" stroke="#FFCC80"/><rect x="180" y="135" width="28" height="28" fill="#FFF8E1" stroke="#FFCC80"/><rect x="180" y="165" width="28" height="28" fill="#FFE0B2" stroke="#FFCC80"/><rect x="210" y="105" width="28" height="28" fill="#FFF8E1" stroke="#FFCC80"/><rect x="210" y="135" width="28" height="28" fill="#FFE0B2" stroke="#FFCC80"/><rect x="210" y="165" width="28" height="28" fill="#FFF8E1" stroke="#FFCC80"/><rect x="240" y="105" width="28" height="28" fill="#FFE0B2" stroke="#FFCC80"/><rect x="240" y="135" width="28" height="28" fill="#FFF8E1" stroke="#FFCC80"/><rect x="240" y="165" width="28" height="28" fill="#FFE0B2" stroke="#FFCC80"/><rect x="270" y="105" width="28" height="28" fill="#FFF8E1" stroke="#FFCC80"/><rect x="270" y="135" width="28" height="28" fill="#FFE0B2" stroke="#FFCC80"/><rect x="270" y="165" width="28" height="28" fill="#FFF8E1" stroke="#FFCC80"/><rect x="300" y="105" width="28" height="28" fill="#FFE0B2" stroke="#FFCC80"/><rect x="300" y="135" width="28" height="28" fill="#FFF8E1" stroke="#FFCC80"/><rect x="300" y="165" width="28" height="28" fill="#FFE0B2" stroke="#FFCC80"/><rect x="330" y="105" width="28" height="28" fill="#FFF8E1" stroke="#FFCC80"/><rect x="330" y="135" width="28" height="28" fill="#FFE0B2" stroke="#FFCC80"/><rect x="330" y="165" width="28" height="28" fill="#FFF8E1" stroke="#FFCC80"/><rect x="360" y="105" width="28" height="28" fill="#FFE0B2" stroke="#FFCC80"/><rect x="360" y="135" width="28" height="28" fill="#FFF8E1" stroke="#FFCC80"/><rect x="360" y="165" width="28" height="28" fill="#FFE0B2" stroke="#FFCC80"/><rect x="390" y="105" width="28" height="28" fill="#FFF8E1" stroke="#FFCC80"/><rect x="390" y="135" width="28" height="28" fill="#FFE0B2" stroke="#FFCC80"/><rect x="390" y="165" width="28" height="28" fill="#FFF8E1" stroke="#FFCC80"/><rect x="420" y="105" width="28" height="28" fill="#FFE0B2" stroke="#FFCC80"/><rect x="420" y="135" width="28" height="28" fill="#FFF8E1" stroke="#FFCC80"/><rect x="420" y="165" width="28" height="28" fill="#FFE0B2" stroke="#FFCC80"/><rect x="450" y="105" width="28" height="28" fill="#FFF8E1" stroke="#FFCC80"/><rect x="450" y="135" width="28" height="28" fill="#FFE0B2" stroke="#FFCC80"/><rect x="450" y="165" width="28" height="28" fill="#FFF8E1" stroke="#FFCC80"/><rect x="480" y="105" width="28" height="28" fill="#FFE0B2" stroke="#FFCC80"/><rect x="480" y="135" width="28" height="28" fill="#FFF8E1" stroke="#FFCC80"/><rect x="480" y="165" width="28" height="28" fill="#FFE0B2" stroke="#FFCC80"/><rect x="510" y="105" width="28" height="28" fill="#FFF8E1" stroke="#FFCC80"/><rect x="510" y="135" width="28" height="28" fill="#FFE0B2" stroke="#FFCC80"/><rect x="510" y="165" width="28" height="28" fill="#FFF8E1" stroke="#FFCC80"/><rect x="540" y="105" width="28" height="28" fill="#FFE0B2" stroke="#FFCC80"/><rect x="540" y="135" width="28" height="28" fill="#FFF8E1" stroke="#FFCC80"/><rect x="540" y="165" width="28" height="28" fill="#FFE0B2" stroke="#FFCC80"/><rect x="570" y="105" width="28" height="28" fill="#FFF8E1" stroke="#FFCC80"/><rect x="570" y="135" width="28" height="28" fill="#FFE0B2" stroke="#FFCC80"/><rect x="570" y="165" width="28" height="28" fill="#FFF8E1" stroke="#FFCC80"/><rect x="600" y="105" width="28" height="28" fill="#FFE0B2" stroke="#FFCC80"/><rect x="600" y="135" width="28" height="28" fill="#FFF8E1" stroke="#FFCC80"/><rect x="600" y="165" width="28" height="28" fill="#FFE0B2" stroke="#FFCC80"/><rect x="630" y="105" width="28" height="28" fill="#FFF8E1" stroke="#FFCC80"/><rect x="630" y="135" width="28" height="28" fill="#FFE0B2" stroke="#FFCC80"/><rect x="630" y="165" width="28" height="28" fill="#FFF8E1" stroke="#FFCC80"/><rect x="660" y="105" width="28" height="28" fill="#FFE0B2" stroke="#FFCC80"/><rect x="660" y="135" width="28" height="28" fill="#FFF8E1" stroke="#FFCC80"/><rect x="660" y="165" width="28" height="28" fill="#FFE0B2" stroke="#FFCC80"/><rect x="690" y="105" width="28" height="28" fill="#FFF8E1" stroke="#FFCC80"/><rect x="690" y="135" width="28" height="28" fill="#FFE0B2" stroke="#FFCC80"/><rect x="690" y="165" width="28" height="28" fill="#FFF8E1" stroke="#FFCC80"/><rect x="720" y="105" width="28" height="28" fill="#FFE0B2" stroke="#FFCC80"/><rect x="720" y="135" width="28" height="28" fill="#FFF8E1" stroke="#FFCC80"/><rect x="720" y="165" width="28" height="28" fill="#FFE0B2" stroke="#FFCC80"/><rect x="750" y="105" width="28" height="28" fill="#FFF8E1" stroke="#FFCC80"/><rect x="750" y="135" width="28" height="28" fill="#FFE0B2" stroke="#FFCC80"/><rect x="750" y="165" width="28" height="28" fill="#FFF8E1" stroke="#FFCC80"/><rect x="780" y="105" width="28" height="28" fill="#FFE0B2" stroke="#FFCC80"/><rect x="780" y="135" width="28" height="28" fill="#FFF8E1" stroke="#FFCC80"/><rect x="780" y="165" width="28" height="28" fill="#FFE0B2" stroke="#FFCC80"/></g><rect y="400" width="800" height="80" fill="url(#floor)"/>
<rect x="40" y="326" width="720" height="30" rx="8" fill="#8D6E53"/><rect x="55" y="356" width="690" height="44" fill="#A1887F"/>
<rect x="125" y="270" width="118" height="56" rx="8" fill="#616161" stroke="#424242" stroke-width="4"/><circle cx="158" cy="296" r="14" fill="#333"/><circle cx="210" cy="296" r="14" fill="#333"/><rect x="154" y="240" width="54" height="30" rx="10" fill="#FF7043"/><path d="M167 224c-8-14 8-18 0-32M186 224c-8-14 8-18 0-32" stroke="#fff" stroke-width="4" opacity=".55" fill="none"/>
<rect x="620" y="205" width="90" height="195" rx="14" fill="#90CAF9" stroke="#64B5F6" stroke-width="4"/><path d="M620 282h90" stroke="#64B5F6" stroke-width="4"/><circle cx="640" cy="242" r="9" fill="#FF6B9D"/><path d="M663 232l13 20h-26z" fill="#FFD89C"/>
<ellipse cx="400" cy="312" rx="62" ry="25" fill="#FF8A65" stroke="#FF7043" stroke-width="4"/><path d="M380 306c22-20 42-20 62 0" stroke="#79B85A" stroke-width="6" fill="none"/><rect x="348" y="40" width="104" height="76" rx="8" fill="#B8D8E8" stroke="#A1887F" stroke-width="7"/><circle cx="418" cy="56" r="18" fill="#FFD89C"/>

</svg>
