<svg xmlns="http://www.w3.org/2000/svg" viewBox="0 0 800 480">
<defs>
  <linearGradient id="sky" x1="0" y1="0" x2="0" y2="1"><stop stop-color="#d4f5e9"/><stop offset="1" stop-color="#e8fff5"/></linearGradient>
  <linearGradient id="floor" x1="0" y1="0" x2="1" y2="0"><stop stop-color="#d4f5e9"/><stop offset="1" stop-color="#fff1b8"/></linearGradient>
  <filter id="shadow"><feDropShadow dx="0" dy="6" stdDeviation="5" flood-color="#5f315c" flood-opacity=".16"/></filter>
</defs>
<rect width="800" height="480" fill="url(#sky)"/>
<g opacity=".72" fill="#fff"><ellipse cx="105" cy="74" rx="78" ry="25"/><ellipse cx="150" cy="60" rx="45" ry="22"/><ellipse cx="575" cy="92" rx="86" ry="28"/><ellipse cx="622" cy="78" rx="52" ry="24"/><ellipse cx="365" cy="48" rx="58" ry="18"/></g>
<path d="M0 300c110-42 205-48 326-10 126 39 258 42 474-8v198H0z" fill="#b8e6d5" opacity=".7"/>
<path d="M0 360c150-50 278-38 424-4 139 32 250 31 376-8v132H0z" fill="url(#floor)"/>

<g opacity=".8"><rect x="0" y="360" width="800" height="120" fill="#d4f5e9"/><g stroke="#b8d9cd" stroke-width="3"><path d="M0 390h800M0 420h800M0 450h800"/><path d="M80 360v120M160 360v120M240 360v120M320 360v120M400 360v120M480 360v120M560 360v120M640 360v120M720 360v120"/></g></g>
<rect x="28" y="34" width="744" height="112" rx="24" fill="#a8d0b0" stroke="#98c0a0" stroke-width="6" opacity=".82"/><g fill="#fff" opacity=".5"><rect x="54" y="52" width="105" height="74" rx="12"/><rect x="184" y="52" width="105" height="74" rx="12"/><rect x="510" y="52" width="105" height="74" rx="12"/><rect x="640" y="52" width="105" height="74" rx="12"/></g>
<rect x="0" y="232" width="800" height="74" fill="#ffe5d9" stroke="#e8d4c8" stroke-width="5"/><rect x="70" y="244" width="112" height="72" rx="24" fill="#e8d4a8" stroke="#d4c4a0" stroke-width="6"/><g fill="#ff8b4d"><path d="M92 238l23 70 18-76z"/><path d="M124 230l24 80 20-84z"/><path d="M154 242l20 66 18-70z"/></g><g stroke="#5ab85e" stroke-width="6"><path d="M102 236l-18-22"/><path d="M139 229l8-27"/><path d="M166 239l24-20"/></g>
<ellipse cx="628" cy="263" rx="70" ry="28" fill="#e8d4a8" stroke="#d4c4a0" stroke-width="5"/><circle cx="590" cy="238" r="22" fill="#ff6b80"/><circle cx="628" cy="230" r="24" fill="#ff8ba0"/><circle cx="664" cy="243" r="21" fill="#ffd166"/><rect x="300" y="246" width="115" height="52" rx="22" fill="#d4b8a8" transform="rotate(8 357 272)"/><g stroke="#8b7866" stroke-width="6"><path d="M405 174h160"/><path d="M440 176v70"/><path d="M486 176v82"/><path d="M532 176v62"/></g><g id="big-flowers">
<g transform="translate(665 365)"><circle r="18" fill="#ff8fb3"/><circle cx="22" r="16" fill="#ffb3d9"/><circle cy="22" r="16" fill="#ffd166"/><circle cx="22" cy="22" r="16" fill="#a8d0ff"/><circle cx="11" cy="11" r="8" fill="#fff6d8"/></g>
<g transform="translate(82 382)"><rect x="-4" y="0" width="8" height="64" rx="4" fill="#4caf50"/><circle cy="-10" r="16" fill="#ff8fb3"/><circle cx="18" cy="-2" r="14" fill="#ffd166"/><circle cx="-16" cy="-2" r="14" fill="#a8d0ff"/><circle r="7" fill="#fff"/></g>
<g fill="#ff8b4d"><path d="M525 405l36-10-10 31z"/><path d="M565 378l38-7-12 32z"/><path d="M610 414l35-11-8 31z"/></g><g stroke="#4caf50" stroke-width="5"><path d="M552 395l15-18"/><path d="M591 372l16-18"/><path d="M638 404l17-17"/></g>
</g>
<g opacity=".92" filter="url(#shadow)"><text x="36" y="52" font-family="Fredoka, Nunito, Arial" font-size="22" fill="#5f315c" font-weight="700">Carrot Kitchen</text></g>
</svg>