<svg xmlns="http://www.w3.org/2000/svg" viewBox="0 0 800 480">
<defs>
  <linearGradient id="sky" x1="0" y1="0" x2="0" y2="1"><stop stop-color="#d4c4b0"/><stop offset="1" stop-color="#e8d4c0"/></linearGradient>
  <linearGradient id="floor" x1="0" y1="0" x2="1" y2="0"><stop stop-color="#e8d4a8"/><stop offset="1" stop-color="#fff1b8"/></linearGradient>
  <filter id="shadow"><feDropShadow dx="0" dy="6" stdDeviation="5" flood-color="#5f315c" flood-opacity=".16"/></filter>
</defs>
<rect width="800" height="480" fill="url(#sky)"/>
<g opacity=".72" fill="#fff"><ellipse cx="105" cy="74" rx="78" ry="25"/><ellipse cx="150" cy="60" rx="45" ry="22"/><ellipse cx="575" cy="92" rx="86" ry="28"/><ellipse cx="622" cy="78" rx="52" ry="24"/><ellipse cx="365" cy="48" rx="58" ry="18"/></g>
<path d="M0 300c110-42 205-48 326-10 126 39 258 42 474-8v198H0z" fill="#b8e6d5" opacity=".7"/>
<path d="M0 360c150-50 278-38 424-4 139 32 250 31 376-8v132H0z" fill="url(#floor)"/>

<path d="M0 0Q400 108 800 0v178Q400 238 0 178z" fill="#8b7866" opacity=".28"/><ellipse cx="74" cy="232" rx="110" ry="190" fill="#9b8876" opacity=".28"/><ellipse cx="725" cy="242" rx="112" ry="185" fill="#9b8876" opacity=".28"/>
<path d="M0 330c140-40 254-36 392 3 146 41 270 37 408-4v151H0z" fill="#e8d4a8"/><g stroke="#c4a86e" stroke-width="8" opacity=".55"><path d="M70 380c140-52 258-54 400 0M180 420c160-44 278-38 430 0M20 438c90-38 168-42 278-8"/></g>
<rect x="44" y="310" width="116" height="76" rx="28" fill="#a89070" stroke="#8b7860" stroke-width="7"/><path d="M58 310c10-60 78-60 90 0" stroke="#8b7860" stroke-width="8" fill="none"/><rect x="610" y="300" width="138" height="102" rx="26" fill="#ffd6e8" opacity=".68" transform="rotate(10 679 351)"/>
<g font-size="46"><text x="218" y="342">🍄</text><text x="530" y="370">🧺</text><text x="662" y="130">🏮</text><text x="344" y="148">✨</text></g>
<rect x="646" y="138" width="54" height="70" rx="12" fill="#ffe5a8" stroke="#d4c4a0" stroke-width="5"/><circle cx="673" cy="174" r="22" fill="#ffd700" opacity=".36"/><g id="big-flowers">
<g transform="translate(665 365)"><circle r="18" fill="#ff8fb3"/><circle cx="22" r="16" fill="#ffb3d9"/><circle cy="22" r="16" fill="#ffd166"/><circle cx="22" cy="22" r="16" fill="#a8d0ff"/><circle cx="11" cy="11" r="8" fill="#fff6d8"/></g>
<g transform="translate(82 382)"><rect x="-4" y="0" width="8" height="64" rx="4" fill="#4caf50"/><circle cy="-10" r="16" fill="#ff8fb3"/><circle cx="18" cy="-2" r="14" fill="#ffd166"/><circle cx="-16" cy="-2" r="14" fill="#a8d0ff"/><circle r="7" fill="#fff"/></g>
<g fill="#ff8b4d"><path d="M525 405l36-10-10 31z"/><path d="M565 378l38-7-12 32z"/><path d="M610 414l35-11-8 31z"/></g><g stroke="#4caf50" stroke-width="5"><path d="M552 395l15-18"/><path d="M591 372l16-18"/><path d="M638 404l17-17"/></g>
</g>
<g opacity=".92" filter="url(#shadow)"><text x="36" y="52" font-family="Fredoka, Nunito, Arial" font-size="22" fill="#5f315c" font-weight="700">Warm Family Nest</text></g>
</svg>