<svg xmlns="http://www.w3.org/2000/svg" viewBox="0 0 800 480">
<defs>
  <linearGradient id="wall" x1="0" y1="0" x2="0" y2="1"><stop stop-color="#FCE4EC"/><stop offset="1" stop-color="#F8BBD0"/></linearGradient>
  <linearGradient id="floor" x1="0" y1="0" x2="1" y2="0"><stop stop-color="#DEB887"/><stop offset="1" stop-color="#F0D4A8"/></linearGradient>
  <filter id="soft"><feGaussianBlur stdDeviation="5"/></filter>
</defs>

<rect width="800" height="400" fill="url(#wall)"/><rect y="400" width="800" height="80" fill="url(#floor)"/><g fill="#FF6B9D" opacity=".22"><path d="M50 55c-12-18-38 0 0 24 38-24 12-42 0-24z"/><path d="M115 92c-12-18-38 0 0 24 38-24 12-42 0-24z"/><path d="M180 129c-12-18-38 0 0 24 38-24 12-42 0-24z"/><path d="M245 166c-12-18-38 0 0 24 38-24 12-42 0-24z"/><path d="M310 203c-12-18-38 0 0 24 38-24 12-42 0-24z"/><path d="M375 240c-12-18-38 0 0 24 38-24 12-42 0-24z"/><path d="M440 67c-12-18-38 0 0 24 38-24 12-42 0-24z"/><path d="M505 104c-12-18-38 0 0 24 38-24 12-42 0-24z"/><path d="M570 141c-12-18-38 0 0 24 38-24 12-42 0-24z"/><path d="M635 178c-12-18-38 0 0 24 38-24 12-42 0-24z"/><path d="M700 215c-12-18-38 0 0 24 38-24 12-42 0-24z"/><path d="M765 252c-12-18-38 0 0 24 38-24 12-42 0-24z"/></g>
<ellipse cx="400" cy="338" rx="145" ry="55" fill="#D7B377" stroke="#C49A5A" stroke-width="5"/><ellipse cx="400" cy="328" rx="122" ry="38" fill="#E8CC8A"/><g stroke="#CCAA66" opacity=".55"><path d="M300 312l20 10" stroke-width="3"/><path d="M323 323l21 11" stroke-width="3"/><path d="M346 334l22 12" stroke-width="3"/><path d="M369 345l23 13" stroke-width="3"/><path d="M392 356l24 14" stroke-width="3"/><path d="M415 319l25 15" stroke-width="3"/><path d="M438 330l26 16" stroke-width="3"/><path d="M461 341l27 17" stroke-width="3"/><path d="M484 352l28 0" stroke-width="3"/><path d="M302 315l29 1" stroke-width="3"/><path d="M325 326l30 2" stroke-width="3"/><path d="M348 337l31 3" stroke-width="3"/><path d="M371 348l32 4" stroke-width="3"/><path d="M394 359l33 5" stroke-width="3"/><path d="M417 322l34 6" stroke-width="3"/><path d="M440 333l35 7" stroke-width="3"/><path d="M463 344l20 8" stroke-width="3"/><path d="M486 355l21 9" stroke-width="3"/><path d="M304 318l22 10" stroke-width="3"/><path d="M327 329l23 11" stroke-width="3"/><path d="M350 340l24 12" stroke-width="3"/><path d="M373 351l25 13" stroke-width="3"/><path d="M396 314l26 14" stroke-width="3"/><path d="M419 325l27 15" stroke-width="3"/><path d="M442 336l28 16" stroke-width="3"/><path d="M465 347l29 17" stroke-width="3"/><path d="M488 358l30 0" stroke-width="3"/><path d="M306 321l31 1" stroke-width="3"/><path d="M329 332l32 2" stroke-width="3"/><path d="M352 343l33 3" stroke-width="3"/><path d="M375 354l34 4" stroke-width="3"/><path d="M398 317l35 5" stroke-width="3"/></g>
<ellipse cx="210" cy="344" rx="78" ry="34" fill="#E8CC8A" opacity=".82"/><rect x="98" y="250" width="70" height="88" rx="12" fill="#8D6E63"/><path d="M102 248h62l-10-28h-42z" fill="#5D4037"/><g fill="#FFAB40"><circle cx="130" cy="292" r="14" opacity=".35"/><path d="M130 280c18 22-18 22 0 0z"/></g>
<rect x="610" y="74" width="110" height="92" rx="12" fill="#B8D8E8" stroke="#DDAA66" stroke-width="7"/><path d="M665 74v92M610 120h110" stroke="#DDAA66" stroke-width="4"/><circle cx="132" cy="288" r="36" fill="#FFAB40" opacity=".08"/>

</svg>
