<svg xmlns="http://www.w3.org/2000/svg" viewBox="0 0 800 480">
<defs>
  <linearGradient id="sky" x1="0" y1="0" x2="0" y2="1"><stop stop-color="#e7f7ff"/><stop offset="1" stop-color="#d4f5e9"/></linearGradient>
  <linearGradient id="floor" x1="0" y1="0" x2="1" y2="0"><stop stop-color="#d8f0ff"/><stop offset="1" stop-color="#fff1b8"/></linearGradient>
  <filter id="shadow"><feDropShadow dx="0" dy="6" stdDeviation="5" flood-color="#5f315c" flood-opacity=".16"/></filter>
</defs>
<rect width="800" height="480" fill="url(#sky)"/>
<g opacity=".72" fill="#fff"><ellipse cx="105" cy="74" rx="78" ry="25"/><ellipse cx="150" cy="60" rx="45" ry="22"/><ellipse cx="575" cy="92" rx="86" ry="28"/><ellipse cx="622" cy="78" rx="52" ry="24"/><ellipse cx="365" cy="48" rx="58" ry="18"/></g>
<path d="M0 300c110-42 205-48 326-10 126 39 258 42 474-8v198H0z" fill="#b8e6d5" opacity=".7"/>
<path d="M0 360c150-50 278-38 424-4 139 32 250 31 376-8v132H0z" fill="url(#floor)"/>

<rect x="0" y="350" width="800" height="130" fill="#d8f0ff"/><g stroke="#b9dff0" stroke-width="4"><path d="M0 382h800M0 414h800M0 446h800"/><path d="M100 350v130M200 350v130M300 350v130M400 350v130M500 350v130M600 350v130M700 350v130"/></g>
<rect x="74" y="80" width="194" height="190" rx="24" fill="#fff" stroke="#a8d0ff" stroke-width="8"/><rect x="140" y="112" width="62" height="126" rx="10" fill="#ff6b9d"/><rect x="108" y="144" width="126" height="62" rx="10" fill="#ff6b9d"/>
<rect x="420" y="246" width="258" height="82" rx="22" fill="#d4b8a8" stroke="#b88654" stroke-width="7"/><rect x="450" y="204" width="196" height="62" rx="25" fill="#fff6e9"/><g font-size="46"><text x="505" y="182">🩺</text><text x="606" y="184">💊</text><text x="704" y="270">🧴</text><text x="346" y="312">🦴</text></g>
<rect x="302" y="112" width="112" height="90" rx="18" fill="#ffe5a8" stroke="#d4c4a0" stroke-width="5"/><circle cx="330" cy="146" r="10" fill="#7bc67e"/><circle cx="360" cy="146" r="10" fill="#ff8ba0"/><circle cx="390" cy="146" r="10" fill="#a8d0ff"/><rect x="318" y="170" width="78" height="14" rx="7" fill="#fff"/><g id="big-flowers">
<g transform="translate(665 365)"><circle r="18" fill="#ff8fb3"/><circle cx="22" r="16" fill="#ffb3d9"/><circle cy="22" r="16" fill="#ffd166"/><circle cx="22" cy="22" r="16" fill="#a8d0ff"/><circle cx="11" cy="11" r="8" fill="#fff6d8"/></g>
<g transform="translate(82 382)"><rect x="-4" y="0" width="8" height="64" rx="4" fill="#4caf50"/><circle cy="-10" r="16" fill="#ff8fb3"/><circle cx="18" cy="-2" r="14" fill="#ffd166"/><circle cx="-16" cy="-2" r="14" fill="#a8d0ff"/><circle r="7" fill="#fff"/></g>
<g fill="#ff8b4d"><path d="M525 405l36-10-10 31z"/><path d="M565 378l38-7-12 32z"/><path d="M610 414l35-11-8 31z"/></g><g stroke="#4caf50" stroke-width="5"><path d="M552 395l15-18"/><path d="M591 372l16-18"/><path d="M638 404l17-17"/></g>
</g>
<g opacity=".92" filter="url(#shadow)"><text x="36" y="52" font-family="Fredoka, Nunito, Arial" font-size="22" fill="#5f315c" font-weight="700">Friendly Vet Clinic</text></g>
</svg>