<svg width="120" height="120" viewBox="0 0 120 120" fill="none" xmlns="http://www.w3.org/2000/svg">
  <!-- Left Ear (slightly droopy) -->
  <ellipse cx="40" cy="30" rx="10" ry="25" fill="#B4E7FF" transform="rotate(-20 40 30)" stroke="#99DEFF" stroke-width="0.5"/>
  <ellipse cx="40" cy="32" rx="5" ry="18" fill="#ff69b4" transform="rotate(-20 40 32)" opacity="0.6"/>

  <!-- Right Ear (slightly droopy) -->
  <ellipse cx="80" cy="30" rx="10" ry="25" fill="#B4E7FF" transform="rotate(20 80 30)" stroke="#99DEFF" stroke-width="0.5"/>
  <ellipse cx="80" cy="32" rx="5" ry="18" fill="#ff69b4" transform="rotate(20 80 32)" opacity="0.6"/>

  <!-- Head -->
  <circle cx="60" cy="54" r="27" fill="#B4E7FF" stroke="#99DEFF" stroke-width="0.5"/>

  <!-- Fur fluff on head (extra fluffy) -->
  <circle cx="45" cy="45" r="5" fill="#D9F2FF" opacity="0.8"/>
  <circle cx="75" cy="45" r="5" fill="#D9F2FF" opacity="0.8"/>
  <circle cx="51" cy="39" r="4" fill="#D9F2FF" opacity="0.7"/>
  <circle cx="69" cy="39" r="4" fill="#D9F2FF" opacity="0.7"/>
  <circle cx="60" cy="36" r="3" fill="#D9F2FF" opacity="0.6"/>

  <!-- Closed eyes (peaceful) -->
  <path d="M 45 51 Q 51 53 57 51" stroke="#1a1a1a" stroke-width="2.5" fill="none" stroke-linecap="round"/>
  <path d="M 63 51 Q 69 53 75 51" stroke="#1a1a1a" stroke-width="2.5" fill="none" stroke-linecap="round"/>

  <!-- Eyelashes -->
  <path d="M 45 50 L 43 48" stroke="#1a1a1a" stroke-width="1" fill="none" stroke-linecap="round"/>
  <path d="M 57 50 L 59 48" stroke="#1a1a1a" stroke-width="1" fill="none" stroke-linecap="round"/>
  <path d="M 63 50 L 61 48" stroke="#1a1a1a" stroke-width="1" fill="none" stroke-linecap="round"/>
  <path d="M 75 50 L 77 48" stroke="#1a1a1a" stroke-width="1" fill="none" stroke-linecap="round"/>

  <!-- Soft Blush -->
  <ellipse cx="42" cy="57" rx="7" ry="4" fill="#ff69b4" opacity="0.3"/>
  <ellipse cx="78" cy="57" rx="7" ry="4" fill="#ff69b4" opacity="0.3"/>

  <!-- Nose -->
  <ellipse cx="60" cy="60" rx="3" ry="2.5" fill="#ff69b4"/>

  <!-- Whiskers - Left side (relaxed) -->
  <line x1="39" y1="59" x2="21" y2="59" stroke="#99DEFF" stroke-width="1.5" stroke-linecap="round" opacity="0.7"/>
  <line x1="39" y1="61" x2="21" y2="62" stroke="#99DEFF" stroke-width="1.5" stroke-linecap="round" opacity="0.7"/>
  <line x1="41" y1="60" x2="24" y2="60" stroke="#99DEFF" stroke-width="1.5" stroke-linecap="round" opacity="0.7"/>

  <!-- Whiskers - Right side (relaxed) -->
  <line x1="81" y1="59" x2="99" y2="59" stroke="#99DEFF" stroke-width="1.5" stroke-linecap="round" opacity="0.7"/>
  <line x1="81" y1="61" x2="99" y2="62" stroke="#99DEFF" stroke-width="1.5" stroke-linecap="round" opacity="0.7"/>
  <line x1="79" y1="60" x2="96" y2="60" stroke="#99DEFF" stroke-width="1.5" stroke-linecap="round" opacity="0.7"/>

  <!-- Peaceful tiny smile -->
  <path d="M 55 64 Q 60 66 65 64" stroke="#1a1a1a" stroke-width="1.5" fill="none" stroke-linecap="round"/>

  <!-- Body (curled up) -->
  <ellipse cx="60" cy="87" rx="24" ry="27" fill="#B4E7FF" stroke="#99DEFF" stroke-width="0.5"/>

  <!-- Extra fur fluff on body (cozy) -->
  <circle cx="45" cy="81" r="6" fill="#D9F2FF" opacity="0.8"/>
  <circle cx="75" cy="81" r="6" fill="#D9F2FF" opacity="0.8"/>
  <circle cx="48" cy="93" r="5" fill="#D9F2FF" opacity="0.7"/>
  <circle cx="72" cy="93" r="5" fill="#D9F2FF" opacity="0.7"/>
  <circle cx="60" cy="75" r="4" fill="#D9F2FF" opacity="0.6"/>

  <!-- Left Paw (tucked) -->
  <ellipse cx="45" cy="105" rx="7" ry="9" fill="#B4E7FF" stroke="#99DEFF" stroke-width="0.5"/>
  <circle cx="45" cy="112" r="4" fill="#D9F2FF"/>

  <!-- Right Paw (tucked) -->
  <ellipse cx="75" cy="105" rx="7" ry="9" fill="#B4E7FF" stroke="#99DEFF" stroke-width="0.5"/>
  <circle cx="75" cy="112" r="4" fill="#D9F2FF"/>

  <!-- Fluffy Tail (wrapped around) -->
  <circle cx="84" cy="93" r="10" fill="#B4E7FF" stroke="#99DEFF" stroke-width="0.5"/>
  <circle cx="87" cy="90" r="8" fill="#D9F2FF" opacity="0.9"/>
  <circle cx="89" cy="93" r="7" fill="#D9F2FF" opacity="0.8"/>
  <circle cx="87" cy="96" r="6" fill="#D9F2FF" opacity="0.7"/>

  <!-- Zzz sleep symbols -->
  <text x="85" y="25" font-family="Arial" font-size="10" fill="#8B7DBD" opacity="0.6">Z</text>
  <text x="92" y="20" font-family="Arial" font-size="8" fill="#8B7DBD" opacity="0.5">z</text>
  <text x="97" y="16" font-family="Arial" font-size="6" fill="#8B7DBD" opacity="0.4">z</text>
</svg>